<?xml version="1.0" encoding="UTF-8"?>
<svg version="1.1" xmlns="http://www.w3.org/2000/svg" width="96" height="96">
<path d="M0 0 C2.67460641 1.47589317 5.2221578 3.05486457 7.77734375 4.7265625 C9.10066217 5.41289375 10.43063681 6.08734216 11.77734375 6.7265625 C12.380625 6.31664062 12.98390625 5.90671875 13.60546875 5.484375 C14.80429688 4.67613281 14.80429688 4.67613281 16.02734375 3.8515625 C16.81625 3.31789063 17.60515625 2.78421875 18.41796875 2.234375 C25.055665 -2.00759644 30.94497163 -2.13201968 38.77734375 -1.2734375 C44.76581211 0.94247893 48.60676794 5.10367415 51.8515625 10.51953125 C53.00493007 13.26912061 53.14925012 15.49783984 53.21484375 18.4765625 C53.27478516 19.95382813 53.27478516 19.95382813 53.3359375 21.4609375 C51.96168622 29.49502192 45.60837191 35.37295616 40.0625 40.9453125 C39.32913925 41.68865845 38.5957785 42.43200439 37.8401947 43.19787598 C36.29852468 44.75464262 34.75284818 46.30745094 33.20336914 47.85644531 C30.83432316 50.23209848 28.49034865 52.63078011 26.14648438 55.03125 C24.64079413 56.54573492 23.13368118 58.05880702 21.625 59.5703125 C20.57941673 60.64823059 20.57941673 60.64823059 19.51271057 61.7479248 C16.68458377 64.53674615 14.63300404 66.45954694 10.80908203 67.65283203 C5.88173333 66.14740757 2.95558543 62.69817393 -0.578125 59.0625 C-1.36157791 58.27767242 -2.14503082 57.49284485 -2.95222473 56.68423462 C-4.60574229 55.02165813 -6.25196631 53.35180055 -7.89135742 51.67529297 C-10.3956533 49.11638174 -12.92297351 46.582147 -15.45507812 44.05078125 C-17.06001347 42.43109306 -18.66357561 40.81004277 -20.265625 39.1875 C-21.01877487 38.43101166 -21.77192474 37.67452332 -22.54789734 36.89511108 C-27.8741834 31.42343227 -31.63837804 26.79478351 -31.72265625 18.8515625 C-31.56846641 12.93360955 -30.1307872 9.14723521 -26.22265625 4.7265625 C-18.82499396 -2.12980743 -9.56021881 -3.77773495 0 0 Z " fill="#EC3846" transform="translate(37.22265625,15.2734375)"/>
</svg>
